<?xml version="1.0" standalone="no"?>
<!DOCTYPE svg PUBLIC "-//W3C//DTD SVG 20010904//EN"
 "http://www.w3.org/TR/2001/REC-SVG-20010904/DTD/svg10.dtd">
<svg version="1.0" xmlns="http://www.w3.org/2000/svg"
 width="225.000000pt" height="209.000000pt" viewBox="0 0 225.000000 209.000000"
 preserveAspectRatio="xMidYMid meet">

<g transform="translate(0.000000,209.000000) scale(0.100000,-0.100000)"
fill="#000000" stroke="none">
<path d="M0 1045 l0 -1045 1125 0 1125 0 0 1045 0 1045 -1125 0 -1125 0 0
-1045z m957 887 l52 -7 114 -145 115 -144 -40 -48 c-22 -27 -67 -73 -101 -103
-69 -63 -64 -64 -134 27 l-44 58 44 53 c25 29 59 65 77 80 41 37 30 51 -35 43
-29 -3 -94 -3 -143 0 l-91 7 -70 88 -70 88 32 4 c52 6 238 6 294 -1z m575
-665 c32 -39 157 -196 278 -347 121 -151 220 -278 220 -282 0 -11 -185 -198
-197 -198 -13 0 -113 120 -113 136 0 7 31 45 69 86 l70 75 -72 71 c-40 40 -76
72 -81 72 -5 0 -38 -28 -73 -61 -54 -52 -66 -60 -77 -48 -16 18 -164 203 -191
238 -11 14 -39 50 -62 79 -24 29 -43 58 -43 64 0 20 173 188 194 188 14 0 40
-25 78 -73z m-657 -478 c96 -95 175 -177 175 -183 0 -8 -37 -12 -125 -11
l-126 1 -142 142 c-78 78 -147 142 -152 142 -6 0 -36 -26 -68 -58 l-57 -57 -6
-85 -7 -86 -86 1 -86 0 -7 45 c-3 25 -7 79 -7 121 l-1 76 64 61 64 62 196 0
197 0 174 -171z"/>
<path d="M1437 1072 c-20 -21 -37 -42 -37 -48 0 -5 18 -28 41 -49 l40 -40 40
43 c21 24 39 47 39 51 0 8 -73 81 -81 81 -3 0 -22 -17 -42 -38z"/>
</g>
</svg>
